<mxfile host="app.diagrams.net" modified="2023-10-21T05:45:41.174Z" agent="Mozilla/5.0 (Macintosh; Intel Mac OS X 10_15_7) AppleWebKit/605.1.15 (KHTML, like Gecko) Version/17.0 Safari/605.1.15" version="22.0.6" etag="jLsIAx07vD_pTqtDWPcs" type="github">
  <diagram name="Page-1" id="U14BwMV9wk0P_1CCDPT4">
    <mxGraphModel>
      <root>
        <mxCell id="0" />
        <mxCell id="1" parent="0" />
      </root>
    </mxGraphModel>
  </diagram>
</mxfile>
